<svg height="488pt" viewBox="-4 0 488 488" width="488pt" xmlns="http://www.w3.org/2000/svg"><path d="m0 440h480v48h-480zm0 0" fill="#656665"/><path d="m0 0h480v48h-480zm0 0" fill="#656665"/><path d="m368 440h-256l10.113281-70.792969c3.375-23.640625 23.628907-41.207031 47.519531-41.207031h38.367188l32 24 32-24h38.367188c23.890624 0 44.136718 17.566406 47.519531 41.207031zm0 0" fill="#999"/><path d="m216 288-8 40 32 24 32-24-8-40" fill="#dcb29c"/><path d="m256 320-6.398438-32h-33.601562l-8 40 18.664062 14zm0 0" fill="#f3c6b0"/><path d="m288 168v80c0 26.511719-21.488281 48-48 48s-48-21.488281-48-48v-80" fill="#dcb29c"/><path d="m228 294.425781c20.6875-5.335937 36-24.066406 36-46.425781v-80h-72v80c0 22.359375 15.3125 41.089844 36 46.425781zm0 0" fill="#f3c6b0"/><path d="m288 200v-48h-72l-24-8v56l48-24v24zm0 0" fill="#7e4e4d"/><path d="m216 152h-24v36l24-12v12l24-12v24h24v-48zm0 0" fill="#8d5655"/><g fill="#656665"><path d="m296 384h48v16h-48zm0 0"/><path d="m232 48h16v392h-16zm0 0"/><path d="m152 48h16v392h-16zm0 0"/><path d="m72 48h16v392h-16zm0 0"/><path d="m392 48h16v392h-16zm0 0"/><path d="m312 48h16v392h-16zm0 0"/></g></svg>